<svg width="356" height="56" viewBox="0 0 356 56" fill="none" xmlns="http://www.w3.org/2000/svg">
<path d="M12.0715 3.54121V34.0689H8.29155V3.54121H2.97692e-06V-4.65816e-08H20.3631V3.56563H12.0715V3.54121ZM35.2635 19.3668V34.0933H31.4835V19.3668L20.3387 -4.65816e-08H24.7527L33.4345 15.2638L42.2381 -4.65816e-08H46.6034L35.2635 19.3668ZM58.748 3.54121V34.0689H54.9681V3.54121H46.6765V-4.65816e-08H67.0396V3.56563H58.748V3.54121ZM99.3766 15.8744C98.8889 16.4117 98.328 16.8757 97.6695 17.3153C97.0111 17.7549 96.3282 18.0968 95.5966 18.341C94.8894 18.5853 94.0359 18.7318 93.1092 18.8295L103.986 34.0445L99.2791 34.0201L89.061 19.1225H88.0367V34.0201H84.208V-4.65816e-08H89.7438C91.9142 -4.65816e-08 93.8896 0.293066 95.6698 0.879197C97.4501 1.46533 98.8645 2.46664 99.9863 3.8587C101.084 5.25076 101.62 7.08243 101.62 9.40253C101.62 11.1121 101.279 12.6995 100.62 14.1404C100.279 14.7754 99.8643 15.3371 99.3766 15.8744ZM96.499 5.47056C96.0112 5.03096 95.4503 4.68905 94.8894 4.42041C94.3041 4.15177 93.6701 3.98081 92.9629 3.8587C91.5972 3.6389 89.9389 3.56563 88.0367 3.56563V15.8256C90.012 15.8256 91.7435 15.7034 93.1579 15.4348C94.5236 15.215 95.6698 14.6533 96.5721 13.6764C97.4744 12.6995 97.9378 11.283 97.9378 9.42695C97.9378 7.59529 97.4744 6.30092 96.499 5.47056ZM130.787 26.5957C130.47 27.8413 129.885 28.9647 129.104 30.0148C127.982 31.4557 126.544 32.5792 124.788 33.4339C123.056 34.2643 121.203 34.7039 119.179 34.7039C117.13 34.7039 115.252 34.2887 113.448 33.4095C111.692 32.5792 110.253 31.4313 109.131 30.0148C108.375 28.9158 107.814 27.6947 107.473 26.4248C107.132 25.1304 106.985 23.6406 106.985 21.9311V-4.65816e-08H110.814V20.9298C110.814 22.5661 110.887 23.7628 111.034 24.5687C111.155 25.3258 111.302 25.8875 111.375 26.205C111.473 26.5225 111.668 26.9376 111.936 27.4993C112.619 28.5983 113.619 29.502 114.984 30.1614C116.35 30.8208 117.74 31.1627 119.179 31.1627C120.593 31.1627 121.959 30.8208 123.276 30.1614C124.593 29.502 125.641 28.5983 126.373 27.4993C126.812 26.7667 127.105 25.9852 127.275 25.106C127.422 24.2756 127.519 22.8836 127.519 20.9542V-4.65816e-08H131.299V21.9555C131.25 23.8116 131.08 25.3502 130.787 26.5957Z" transform="translate(224.701 3.34583)" fill="#84C225"/>
<path d="M2.73169 7.45305e-07C4.24367 7.45305e-07 5.46304 1.24553 5.46304 2.73528C5.46304 4.22503 4.21929 5.47056 2.73169 5.47056C1.2197 5.47056 0.000365463 4.22503 0.000365463 2.73528C-0.0240214 1.24553 1.19531 7.45305e-07 2.73169 7.45305e-07Z" transform="translate(289.862 32.4326)" fill="#84C225"/>
<path d="M23.9479 35.7052L18.7535 35.6808L4.85299 20.0994L3.82874 21.0031V35.7296H1.48846e-06V1.63628H3.82874V16.1675L18.2902 1.61186L23.4114 1.63628L7.51116 17.5351L23.9479 35.7052ZM61.1623 23.2743C60.7965 24.6664 60.1869 26.0829 59.3577 27.4749C57.6994 30.2591 55.529 32.4082 52.822 33.9712C50.1151 35.5342 47.1887 36.3157 44.0184 36.3157C41.6284 36.3157 39.3605 35.8761 37.2144 34.9725C35.0684 34.0689 33.1662 32.8234 31.5079 31.1871C29.8496 29.5508 28.5571 27.6703 27.6304 25.5456C26.6793 23.4208 26.2159 21.174 26.2159 18.7806C26.2159 15.679 27.0207 12.7239 28.6302 9.93982C30.1178 7.2778 32.2883 5.15308 35.0684 3.54121C37.8485 1.90493 40.8237 1.099 43.9696 1.099C47.1155 1.099 50.0663 1.88051 52.7976 3.49237C55.529 5.07981 57.6994 7.22896 59.2846 9.93982C60.8941 12.6507 61.6745 15.5569 61.6745 18.6585C61.7233 20.3192 61.5282 21.8334 61.1623 23.2743ZM56.0655 11.6738C54.7974 9.54906 53.0903 7.83951 50.9442 6.56956C48.7982 5.29961 46.4814 4.68905 44.0184 4.68905C41.5797 4.68905 39.2629 5.32403 37.0925 6.56956C34.922 7.83951 33.215 9.52464 31.9712 11.6738C30.7275 13.7985 30.1422 16.1919 30.1422 18.8051C30.1422 21.2717 30.7763 23.5918 31.9956 25.741C33.215 27.8901 34.9464 29.5752 37.1169 30.8696C39.2629 32.1396 41.5797 32.799 44.0427 32.799C46.5302 32.799 48.847 32.164 50.993 30.8696C53.1391 29.5997 54.8461 27.8657 56.1143 25.7165C57.358 23.5674 57.9677 21.2473 57.9677 18.8051C57.9433 16.1675 57.3092 13.7985 56.0655 11.6738ZM68.0151 35.7052V1.63628H71.8438V32.164H81.2328V35.7296H68.0151V35.7052ZM103.059 32.1396V35.7052H85.4517V1.63628H103.059V5.20192H89.2804V15.2883H102.766V18.8539H89.2804V32.164H103.059V32.1396ZM122.032 5.49499C121.105 4.9577 120.057 4.68905 118.862 4.68905C117.764 4.68905 116.764 4.90885 115.887 5.34845C115.009 5.78805 114.326 6.37418 113.814 7.15569C113.326 7.91278 113.058 8.79198 113.058 9.6956C113.058 11.283 113.692 12.4797 114.984 13.3345C116.277 14.1649 118.155 15.1906 120.715 16.3628C123.251 17.5107 125.276 18.8051 126.763 20.1971C128.129 21.638 128.836 23.5185 128.836 25.8142C128.836 27.7436 128.348 29.502 127.373 31.1383C126.397 32.799 125.105 34.0445 123.495 34.9481C121.886 35.8517 120.081 36.2913 118.057 36.2913C116.252 36.2913 114.618 35.9494 113.18 35.2656C111.741 34.5818 110.521 33.556 109.546 32.2128C108.57 30.8696 107.863 29.3066 107.449 27.4749L111.131 26.4736C112.107 30.6254 114.375 32.7013 117.984 32.7013C120.008 32.7013 121.666 32.0419 122.983 30.7231C124.3 29.4043 124.958 27.7436 124.958 25.7898C124.958 24.0802 124.324 22.7614 123.105 21.8823C121.861 20.9786 119.935 19.9041 117.277 18.6829C115.911 18.048 114.74 17.4374 113.789 16.8757C112.838 16.2896 112.009 15.6546 111.302 14.9464C109.936 13.6764 109.229 11.9424 109.229 9.76886C109.229 8.52333 109.497 7.35107 109.985 6.25207C110.375 5.27519 111.058 4.37157 112.009 3.49237C112.448 3.12604 112.936 2.78413 113.448 2.49106C113.984 2.19799 114.545 1.92935 115.228 1.73397C116.399 1.29437 117.716 1.07457 119.203 1.07457C122.788 1.07457 125.617 2.85739 127.665 6.37418L124.593 8.35238C123.764 7.03358 122.934 6.10554 122.032 5.49499ZM157.515 35.7052L153.467 26.034H138.932L134.786 35.7296L130.665 35.7052L146.321 0L161.685 35.7052H157.515ZM146.346 8.84082L140.517 22.5661H151.979L146.346 8.84082Z" transform="translate(63.3572 1.70953)" fill="white"/>
<path d="M1.78025 7.45305e-07V4.32272C1.78025 5.93458 1.73147 6.98474 1.65831 8.42564L1.70708 8.45006C2.34114 7.18011 2.68256 6.47187 3.38978 5.29961L6.58446 0.0244207H8.7549V10.2817H6.97465V5.93459C6.97465 4.24946 7.02343 3.39468 7.09659 1.73397H7.04782C6.36498 3.07719 5.95041 3.88312 5.34073 4.93328C4.36526 6.52072 3.21907 8.47449 2.14605 10.3062H-2.97692e-06V0.0488443H1.78025V7.45305e-07Z" transform="translate(63.1621 41.5909)" fill="white"/>
<path d="M1.8534 7.45305e-07V4.12734H6.68201V7.45305e-07H8.53541V10.2573H6.68201V5.64152H1.8534V10.2573H-2.97692e-06V7.45305e-07H1.8534Z" transform="translate(74.8679 41.5909)" fill="white"/>
<path d="M8.24277 7.45305e-07V1.46533H5.04809V10.2329H3.19469V1.46533H1.48846e-06V7.45305e-07H8.24277Z" transform="translate(85.0615 41.5909)" fill="white"/>
<path d="M1.78025 5.66594C1.82902 8.18142 3.41417 9.20715 5.29196 9.20715C6.63324 9.20715 7.43801 8.96293 8.12084 8.66986L8.46226 10.0131C7.80381 10.3061 6.68201 10.6725 5.04809 10.6725C1.90218 10.6725 -1.48846e-06 8.57218 -1.48846e-06 5.49498C-1.48846e-06 2.39337 1.80463 0 4.80422 0C8.16961 0 9.02315 2.90624 9.02315 4.81116C9.02315 5.1775 8.99877 5.47056 8.97438 5.69036H1.75586V5.66594H1.78025ZM7.24291 4.32272C7.2673 3.17488 6.75517 1.31879 4.68229 1.31879C2.8045 1.31879 1.97534 3.02835 1.82902 4.32272H7.24291Z" transform="translate(93.9141 41.3956)" fill="white"/>
<path d="M0.0731592 3.56563C0.0731592 2.24684 0.0243884 1.19669 1.48846e-06 0.2198H1.65831L1.75585 1.97819H1.80463C2.53624 0.708243 3.77997 -1.49061e-06 5.43828 -1.49061e-06C7.92574 -1.49061e-06 9.80353 2.10031 9.80353 5.1775C9.80353 8.86524 7.53555 10.6725 5.12125 10.6725C3.75558 10.6725 2.58501 10.0619 1.97534 9.06062H1.92657V14.6289H0.0975476V3.56563H0.0731592ZM1.90218 6.30092C1.90218 6.56956 1.92657 6.8382 1.97534 7.058C2.31676 8.35238 3.43855 9.23157 4.75545 9.23157C6.73079 9.23157 7.85258 7.61971 7.85258 5.25076C7.85258 3.22372 6.77956 1.46533 4.80422 1.46533C3.5361 1.46533 2.34114 2.36895 1.99972 3.76101C1.95095 4.00523 1.87779 4.24946 1.87779 4.49368V6.2765H1.90218V6.30092Z" transform="translate(105.181 41.3711)" fill="white"/>
<path d="M1.8534 7.45305e-07V4.12734H6.68201V7.45305e-07H8.53542V10.2573H6.68201V5.64152H1.8534V10.2573H-1.48846e-06V7.45305e-07H1.8534Z" transform="translate(117.203 41.5909)" fill="white"/>
<path d="M1.78025 5.66594C1.82902 8.18142 3.41416 9.20715 5.29195 9.20715C6.63323 9.20715 7.43801 8.96293 8.12084 8.66986L8.46225 10.0131C7.8038 10.3061 6.682 10.6725 5.04808 10.6725C1.90217 10.6725 5.95383e-06 8.57218 5.95383e-06 5.49498C5.95383e-06 2.39337 1.80462 0 4.80421 0C8.16961 0 9.02316 2.90624 9.02316 4.81116C9.02316 5.1775 8.99877 5.47056 8.97438 5.69036H1.75585V5.66594H1.78025ZM7.2429 4.32272C7.26729 3.17488 6.75517 1.31879 4.68228 1.31879C2.80449 1.31879 1.97534 3.02835 1.82902 4.32272H7.2429Z" transform="translate(128.056 41.3956)" fill="white"/>
<path d="M8.21839 7.45305e-07V1.46533H5.0237V10.2329H3.1703V1.46533H2.97692e-06V7.45305e-07H8.21839Z" transform="translate(138.006 41.5909)" fill="white"/>
<path d="M3.82874 0V1.36764H5.95383e-06V0H3.82874Z" transform="translate(146.468 46.6463)" fill="white"/>
<path d="M0.682839 0.0244229H2.9752L4.80422 5.1775C5.07247 5.93458 5.51143 7.20453 5.73092 7.98604H5.77969C6.02356 7.20453 6.58447 5.59267 7.02343 4.46925L8.65734 -7.45305e-07H10.9741L11.6813 10.2573H9.90109L9.65722 5.37287C9.60844 4.24945 9.53527 2.95508 9.51089 1.70955H9.46212C9.19387 2.63759 8.87683 3.44352 8.34032 5.03096L6.36498 10.184H5.02371L3.21907 5.10423C2.87765 4.15177 2.43868 2.66201 2.19482 1.70955H2.12166C2.07288 2.93066 2.0485 4.24946 1.97534 5.3973L1.70708 10.2329H-5.95383e-06L0.682839 0.0244229Z" transform="translate(151.272 41.5665)" fill="white"/>
<path d="M7.97451 8.05931C7.97451 8.96293 8.0233 9.81771 8.12084 10.5015H6.43814L6.29183 9.20715H6.24305C5.65776 10.0131 4.56036 10.7213 3.12153 10.7213C1.04864 10.7213 -5.95383e-06 9.256 -5.95383e-06 7.76625C-5.95383e-06 5.29961 2.19482 3.93197 6.1455 3.95639V3.73659C6.1455 2.93066 5.90163 1.36764 3.80436 1.39206C2.82888 1.39206 1.82902 1.66071 1.1218 2.14915L0.70722 0.903618C1.53637 0.366331 2.8045 -7.45305e-07 4.09701 -7.45305e-07C7.21853 -7.45305e-07 7.97451 2.12473 7.97451 4.17619V8.05931ZM6.1455 5.29961C4.12138 5.25076 1.80463 5.61709 1.80463 7.61971C1.80463 8.86524 2.60939 9.40253 3.53609 9.40253C4.90176 9.40253 5.75531 8.57218 6.04796 7.69298C6.09673 7.47318 6.12112 7.2778 6.12112 7.08242L6.1455 5.29961Z" transform="translate(164.563 41.3223)" fill="white"/>
<path d="M6.26743 0.0488451V1.51417H1.82902V10.2573H5.95383e-06V1.49061e-06H6.26743V0.0488451Z" transform="translate(175.488 41.5421)" fill="white"/>
<path d="M7.95013 8.05931C7.95013 8.96293 7.9989 9.81771 8.09645 10.5015H6.43814L6.29183 9.20715H6.24305C5.65776 10.0131 4.56036 10.7213 3.12153 10.7213C1.04864 10.7213 -5.95383e-06 9.256 -5.95383e-06 7.76625C-5.95383e-06 5.29961 2.19482 3.93197 6.1455 3.95639V3.73659C6.1455 2.93066 5.90163 1.36764 3.80436 1.39206C2.82888 1.39206 1.82902 1.66071 1.1218 2.14915L0.70722 0.903618C1.53637 0.366331 2.8045 -7.45305e-07 4.09701 -7.45305e-07C7.21853 -7.45305e-07 7.97451 2.12473 7.97451 4.17619L7.95013 8.05931ZM6.1455 5.29961C4.12138 5.25076 1.80463 5.61709 1.80463 7.61971C1.80463 8.86524 2.60939 9.40253 3.53609 9.40253C4.90176 9.40253 5.75531 8.57218 6.04796 7.69298C6.09673 7.47318 6.12112 7.2778 6.12112 7.08242L6.1455 5.29961Z" transform="translate(182.609 41.3223)" fill="white"/>
<path d="M1.78025 4.49367H2.68255C4.2677 4.49367 5.31635 3.78543 5.31635 2.80855C5.31635 1.88051 4.51158 1.31879 3.31662 1.31879C2.51185 1.31879 1.56076 1.61186 0.853536 2.05146L0.390193 0.928043C1.41444 0.293067 2.6094 0 3.80436 0C5.38951 0 7.2673 0.708242 7.2673 2.68644C7.2673 3.95639 6.12112 4.78674 4.95055 5.03097V5.07981C6.46253 5.22634 7.73064 6.12996 7.73064 7.61971C7.73064 9.81771 5.46267 10.6725 3.31662 10.6725C2.14605 10.6725 0.902309 10.355 -5.95383e-06 9.86655L0.487732 8.5966C1.21934 9.01177 2.2436 9.30484 3.19469 9.30484C4.75545 9.30484 5.70653 8.57218 5.70653 7.54644C5.70653 6.1788 4.26771 5.78805 2.70695 5.78805H1.80463L1.78025 4.49367Z" transform="translate(192.608 41.3956)" fill="white"/>
<path d="M1.78024 7.45305e-07V4.32272C1.78024 5.93458 1.73147 6.98474 1.65831 8.42564L1.70708 8.45006C2.34114 7.18011 2.68257 6.47187 3.38979 5.29961L6.58446 0.0244207H8.7549V10.2817H6.97465V5.93459C6.97465 4.24946 7.02342 3.39468 7.09658 1.73397H7.04782C6.36499 3.07719 5.95041 3.88312 5.34074 4.93328C4.36526 6.52072 3.21907 8.47449 2.14604 10.3062H0V0.0488443H1.78024V7.45305e-07Z" transform="translate(202.582 41.5909)" fill="white"/>
<path d="M1.85341 7.45305e-07V4.12734H6.68201V7.45305e-07H8.53541V10.2573H6.68201V5.64152H1.85341V10.2573H-5.95383e-06V7.45305e-07H1.85341Z" transform="translate(214.312 41.5909)" fill="white"/>
<path d="M1.90218 7.45305e-07V8.76755H5.43828V7.45305e-07H7.2673V8.76755H10.8034V7.45305e-07H12.6324V10.2573H2.97692e-06V7.45305e-07H1.90218Z" transform="translate(231.651 41.5909)" fill="white"/>
<path d="M1.78025 7.45305e-07V4.32272C1.78025 5.93458 1.73147 6.98474 1.65831 8.42564L1.70709 8.45006C2.34115 7.18011 2.68257 6.47187 3.38979 5.29961L6.58447 0.0244207H8.75491V10.2817H6.97465V5.93459C6.97465 4.24946 7.02343 3.39468 7.09659 1.73397H7.04783C6.36499 3.07719 5.95042 3.88312 5.34074 4.93328C4.36527 6.52072 3.21907 8.47449 2.14605 10.3062H5.95383e-06V0.0488443H1.78025V7.45305e-07Z" transform="translate(247.308 41.5909)" fill="white"/>
<path d="M1.8534 7.45305e-07V4.12734H6.68202V7.45305e-07H8.53542V10.2573H6.68202V5.64152H1.8534V10.2573H5.95383e-06V7.45305e-07H1.8534Z" transform="translate(259.013 41.5909)" fill="white"/>
<path d="M1.78023 7.45305e-07V4.32272C1.78023 5.93458 1.73146 6.98474 1.6583 8.42564L1.70709 8.45006C2.34115 7.18011 2.68257 6.47187 3.38979 5.29961L6.58447 0.0244207H8.75491V10.2817H6.97465V5.93459C6.97465 4.24946 7.02343 3.39468 7.09659 1.73397H7.04783C6.36499 3.07719 5.95042 3.88312 5.34074 4.93328C4.36527 6.52072 3.21906 8.47449 2.14604 10.3062H5.95383e-06V0.0488443H1.78023V7.45305e-07Z" transform="translate(276.45 41.5909)" fill="white"/>
<path d="M9.29141 7.45305e-07V8.86524L10.3401 8.88966L10.2425 13.5055H8.77929L8.70612 10.2817H1.60954L1.51198 13.5055H0.0731488L5.95383e-06 8.91409L0.877928 8.86524C1.31689 8.20585 1.6583 7.4976 1.90217 6.76494C2.29236 5.49499 2.51184 4.10292 2.51184 2.68644V0.0244207H9.34017V7.45305e-07H9.29141ZM4.09699 3.10161C4.09699 4.46925 3.95068 5.78805 3.56049 6.93589C3.34101 7.64413 3.07274 8.27911 2.75571 8.8164H7.48677V1.39206H4.09699V3.10161Z" transform="translate(291.326 41.5909)" fill="white"/>
<path d="M1.78024 7.45305e-07V4.32272C1.78024 5.93458 1.73147 6.98474 1.65831 8.42564L1.70707 8.45006C2.34113 7.18011 2.68255 6.47187 3.38977 5.29961L6.58445 0.0244207H8.75489V10.2817H6.97467V5.93459C6.97467 4.24946 7.02344 3.39468 7.0966 1.73397H7.04781C6.36497 3.07719 5.9504 3.88312 5.34073 4.93328C4.36525 6.52072 3.21907 8.47449 2.14605 10.3062H-1.19077e-05V0.0488443H1.78024V7.45305e-07Z" transform="translate(303.836 41.5909)" fill="white"/>
<path d="M8.04768 10.0864C7.55994 10.3306 6.46254 10.6969 5.09687 10.6969C1.99974 10.6969 5.95383e-06 8.5966 5.95383e-06 5.47056C5.95383e-06 2.3201 2.14605 0 5.48706 0C6.58447 0 7.55994 0.268644 8.04768 0.56171L7.63309 1.9782C7.19412 1.73397 6.51131 1.48975 5.48706 1.48975C3.14592 1.48975 1.8534 3.24815 1.8534 5.34845C1.8534 7.7174 3.36539 9.18273 5.3895 9.18273C6.43814 9.18273 7.14537 8.91409 7.68188 8.69429L8.04768 10.0864Z" transform="translate(314.859 41.3956)" fill="white"/>
<path d="M1.85342 0.0244229V4.46925H2.29236L6.12112 0.0244229H8.38909L3.95068 4.64021C5.60899 4.83559 6.60885 5.93458 7.38923 7.76625C7.65749 8.45007 7.99891 9.45137 8.46226 10.2573H6.51131C6.24305 9.81771 5.90163 8.98735 5.56021 8.157C4.85299 6.49629 3.90189 5.73921 2.19481 5.73921H1.82901V10.2573H-1.19077e-05V-7.45305e-07H1.85342V0.0244229Z" transform="translate(325.053 41.5665)" fill="white"/>
<path d="M9.99862 5.25097C9.99862 9.0364 7.34047 10.6971 4.90178 10.6971C2.14606 10.6971 -1.19077e-05 8.67007 -1.19077e-05 5.42192C-1.19077e-05 2.00282 2.26798 0.000206017 5.07248 0.000206017C8.02329 -0.0242161 9.99862 2.12493 9.99862 5.25097ZM1.92656 5.34866C1.92656 7.57107 3.1947 9.28062 5.02371 9.28062C6.80396 9.28062 8.12084 7.5955 8.12084 5.29981C8.12084 3.56584 7.24292 1.39227 5.04809 1.39227C2.85327 1.39227 1.92656 3.39488 1.92656 5.34866Z" transform="translate(334.32 41.3953)" fill="white"/>
<path d="M-5.95383e-06 0.244222C0.731601 0.122112 2.07289 7.45305e-07 3.24346 7.45305e-07C4.97493 7.45305e-07 7.8038 0.293065 7.8038 2.5399C7.8038 3.80986 6.82834 4.61579 5.68215 4.88443V4.93328C7.16975 5.15308 8.29154 5.95901 8.29154 7.44876C8.29154 10.1352 4.90177 10.4771 2.90204 10.4771C1.78024 10.4771 0.560887 10.4038 0.024375 10.355V0.244222H-5.95383e-06ZM1.78025 9.15831C2.31676 9.20715 2.70695 9.20715 3.24346 9.20715C4.51158 9.20715 6.36497 8.93851 6.36497 7.42433C6.36497 5.95901 4.87739 5.64152 3.12153 5.64152H1.75587V9.15831H1.78025ZM1.80463 4.44483H3.19467C4.56034 4.44483 5.97478 4.05408 5.97478 2.80855C5.97478 1.78282 5.07249 1.3188 3.21908 1.3188C2.58502 1.3188 2.19483 1.36764 1.78025 1.39206V4.44483H1.80463Z" transform="translate(346.611 41.4688)" fill="white"/>
<path d="M-7.44229e-07 55.7558V52.068C13.3396 52.068 24.1918 41.249 24.1918 27.8657C24.1918 14.4823 13.364 3.68775 -7.44229e-07 3.68775V0C15.4125 0 27.8742 12.4797 27.8742 27.8901C27.8742 43.3005 15.4125 55.7558 -7.44229e-07 55.7558Z" transform="translate(22.1677)" fill="#84C225"/>
<path d="M-3.72115e-07 44.3506V38.2939C8.7549 38.0986 15.7783 30.9673 15.7783 22.1997C15.7783 13.4322 8.7549 6.25207 -3.72115e-07 6.05669V-9.31631e-08C12.0959 0.195377 21.8263 10.0375 21.8263 22.1753C21.8263 34.3131 12.0715 44.1553 -3.72115e-07 44.3506Z" transform="translate(22.509 5.71478)" fill="white"/>
<path d="M21.8263 6.08112C13.0714 6.25207 6.04795 13.4078 6.04795 22.1753C6.04795 30.9429 13.0714 38.0986 21.8263 38.2695V44.3262C9.73037 44.1553 -7.26786e-10 34.3131 -7.26786e-10 22.1753C-7.26786e-10 10.0375 9.73037 0.170955 21.8263 -1.86326e-07V6.08112Z" transform="translate(0 5.69037)" fill="#84C225"/>
</svg>
